<?xml version="1.0" encoding="utf-8"?>
<!-- Generator: Adobe Illustrator 17.1.0, SVG Export Plug-In . SVG Version: 6.00 Build 0)  -->
<!DOCTYPE svg PUBLIC "-//W3C//DTD SVG 1.1//EN" "http://www.w3.org/Graphics/SVG/1.1/DTD/svg11.dtd">
<svg version="1.1" id="Layer_1" xmlns="http://www.w3.org/2000/svg" xmlns:xlink="http://www.w3.org/1999/xlink" x="0px" y="0px"
	 viewBox="0 0 360 360" enable-background="new 0 0 360 360" xml:space="preserve">
<g>
	<path fill="#6D6E71" d="M62.979,169.297v-0.664c0-66.12,49.839-120.278,121.274-120.278c43.858,0,70.107,14.62,91.704,35.884
		l-32.562,37.545c-17.941-16.281-36.216-26.249-59.475-26.249c-39.206,0-67.449,32.561-67.449,72.433v0.664
		c0,39.871,27.578,73.097,67.449,73.097c26.581,0,42.861-10.633,61.136-27.246l32.562,32.895
		c-23.923,25.584-50.503,41.532-95.358,41.532C113.814,288.911,62.979,236.082,62.979,169.297z"/>
</g>
<g>
	<path fill="#00AEEF" d="M273.331,168.521H252.41v-15.95h20.921v-20.806h16.414v20.806h20.921v15.95h-20.921v20.806h-16.414V168.521
		z"/>
</g>
<g>
</g>
<g>
</g>
<g>
</g>
<g>
</g>
<g>
</g>
<g>
</g>
</svg>
